<?xml version="1.0" encoding="UTF-8"?>
<svg width="200px" height="400px" viewBox="0 0 200 400" version="1.1" xmlns="http://www.w3.org/2000/svg" xmlns:xlink="http://www.w3.org/1999/xlink">
    <!-- Generator: Sketch 63.1 (92452) - https://sketch.com -->
    <title>icon_sort_2</title>
    <desc>Created with Sketch.</desc>
    <g id="icon_sort_2" stroke="none" stroke-width="1" fill="none" fill-rule="evenodd">
        <g id="Group-4" transform="translate(37.500000, 83.281553)" fill-rule="nonzero">
            <g id="arrow-up" transform="translate(2.804613, 0.186885)">
                <path d="M107.309677,43.2075847 L24.7046485,-5.62794483 C17.9929899,-9.59392488 7.71429604,-5.74528152 7.71429604,4.0640656 L7.71429604,101.711657 C7.71429604,110.511909 17.2655024,115.815527 24.7046485,111.403668 L107.309677,62.5916056 C114.678421,58.2501481 114.701888,47.5490422 107.309677,43.2075847 Z" id="Mask" transform="translate(60.279667, 52.909557) rotate(-90.000000) translate(-60.279667, -52.909557) "></path>
                <path d="M50.5776952,5.87954727 L1.74216569,88.4845756 C-2.22381436,95.1962342 1.62482901,105.474928 11.4341761,105.474928 L109.081768,105.474928 C117.882019,105.474928 123.185638,95.9237216 118.773778,88.4845756 L69.9617161,5.87954727 C65.6202586,-1.48919674 54.9191527,-1.51266407 50.5776952,5.87954727 Z" id="Combined-Shape" fill="#1DB954"></path>
            </g>
            <g id="arrow-up" transform="translate(63.304613, 181.410186) scale(1, -1) translate(-63.304613, -181.410186) translate(2.804613, 128.410186)">
                <path d="M107.309677,43.2075847 L24.7046485,-5.62794483 C17.9929899,-9.59392488 7.71429604,-5.74528152 7.71429604,4.0640656 L7.71429604,101.711657 C7.71429604,110.511909 17.2655024,115.815527 24.7046485,111.403668 L107.309677,62.5916056 C114.678421,58.2501481 114.701888,47.5490422 107.309677,43.2075847 Z" id="Mask" transform="translate(60.279667, 52.909557) rotate(-90.000000) translate(-60.279667, -52.909557) "></path>
                <path d="M50.5776952,5.87954727 L1.74216569,88.4845756 C-2.22381436,95.1962342 1.62482901,105.474928 11.4341761,105.474928 L109.081768,105.474928 C117.882019,105.474928 123.185638,95.9237216 118.773778,88.4845756 L69.9617161,5.87954727 C65.6202586,-1.48919674 54.9191527,-1.51266407 50.5776952,5.87954727 Z" id="Combined-Shape" stroke="#D2D2D2" stroke-width="4" fill="#FFFFFF"></path>
            </g>
        </g>
    </g>
</svg>